<?xml version="1.0" encoding="utf-8"?>
<!-- Generator: Adobe Illustrator 21.0.2, SVG Export Plug-In . SVG Version: 6.00 Build 0)  -->
<svg version="1.1" id="Layer_1" xmlns="http://www.w3.org/2000/svg" xmlns:xlink="http://www.w3.org/1999/xlink" x="0px" y="0px"
	 viewBox="0 0 240 240" style="enable-background:new 0 0 240 240;" xml:space="preserve">
<style type="text/css">
	.st0{fill:#BD351A;}
	.st1{fill:#CC9900;}
	.st2{fill:#6BBA54;}
	.st3{fill:#3870A9;}
	.st4{fill:none;}
	.st5{fill:none;stroke:#000000;stroke-miterlimit:10;}
</style>
<g>
	<g id="XMLID_1_">
		<g>
			<path class="st0" d="M207,163.5c0,6.2-1.1,12.7-3.4,19.1L188,157.9l-29.8,1.2c-3.3-15.9-27.8-22.7-43.9-27
				c-0.4-0.1-0.8-0.2-1.1-0.3l-0.9-20.4c0-0.7,0.3-1.3,0.9-1.7l20.2-12.9C194.4,114.5,207,139.7,207,163.5z"/>
			<path class="st1" d="M193.5,37.8c0,7.1-15.6,30.1-23.9,30.1c-7.5,0-19.2-22.8-50.3-22.8c-9.1,0-19.8,2.3-26.7,7.5L81.3,33.5
				l-25.6,0.2C67.4,21,87.3,11,119.3,11C162.7,11,193.5,30.5,193.5,37.8z M181,38.5c0-4.1-3.4-7.5-7.5-7.5s-7.5,3.4-7.5,7.5
				s3.4,7.5,7.5,7.5S181,42.6,181,38.5z"/>
			<path class="st2" d="M41.5,68.4c0-7.7,2.2-17.3,8-26.5L77,42.2l9.7,17.2c-1,2-1.6,4.3-1.6,6.8c0,15.3,20.8,22.7,37.3,27.6
				l-18.4,12.2c-0.6,0.4-0.9,1-0.8,1.7l1.3,21.8C47.9,112.4,41.5,88.8,41.5,68.4z"/>
			<path class="st3" d="M33.4,169.6c0-21.5,15.3-34.1,18.3-34.1c5.1,0,0,51.3,64.4,51.3c20.4,0,38.4-6.7,41.9-19.4l26.1-0.6
				l15.3,25.1C187.6,212,162.3,229,119,229C76.5,229,33.4,209.8,33.4,169.6z"/>
		</g>
		<g>
		</g>
	</g>
</g>
<path class="st4" d="M49-19"/>
<line class="st4" x1="-21" y1="144" x2="-21" y2="143"/>
<path class="st5" d="M246,135"/>
<path class="st5" d="M-25,135"/>
</svg>
